<?xml version="1.0" encoding="utf-8"?>
<!-- Generator: Adobe Illustrator 22.0.1, SVG Export Plug-In . SVG Version: 6.00 Build 0)  -->
<svg version="1.1" id="Livello_1" xmlns="http://www.w3.org/2000/svg" xmlns:xlink="http://www.w3.org/1999/xlink" x="0px" y="0px"
	 viewBox="0 0 200 200" style="enable-background:new 0 0 200 200;" xml:space="preserve">
<style type="text/css">
	.st0{fill:url(#SVGID_1_);}
	.st1{fill:url(#SVGID_2_);}
	.st2{fill:url(#SVGID_3_);}
	.st3{fill:url(#SVGID_4_);}
	.st4{fill:url(#SVGID_5_);}
	.st5{fill:url(#SVGID_6_);}
	.st6{fill:url(#SVGID_7_);}
</style>
<g>
	<g>
		<g>
			<g>
				<g>
					
						<linearGradient id="SVGID_1_" gradientUnits="userSpaceOnUse" x1="47.7121" y1="146.599" x2="120.0068" y2="54.4653" gradientTransform="matrix(1 0 0 -1 0 202)">
						<stop  offset="1.702724e-03" style="stop-color:#60BBB8"/>
						<stop  offset="0.3605" style="stop-color:#6EB65F"/>
						<stop  offset="1" style="stop-color:#4E6038"/>
					</linearGradient>
					<path class="st0" d="M91.6,95.6c-0.4,0-0.7,0-1.1-0.1c-1.5-0.1-3.1-0.2-4.8-0.5c-1.7-0.3-3.5-0.7-5.3-1.3
						c-1.8-0.6-3.6-1.3-5.3-2.3c-1.7-0.9-3.4-2-5-3.3c-1.5-1.2-3-2.6-4.3-4c-1-1.1-1.9-2.3-2.7-3.5c-4.2,1.6-7,2.9-7,2.9
						c11.2,17.7,27.8,15.2,37,12c-0.2,0-0.3,0-0.5,0C92.3,95.6,92,95.6,91.6,95.6z"/>
					
						<linearGradient id="SVGID_2_" gradientUnits="userSpaceOnUse" x1="51.6507" y1="149.6895" x2="123.9454" y2="57.5557" gradientTransform="matrix(1 0 0 -1 0 202)">
						<stop  offset="1.702724e-03" style="stop-color:#60BBB8"/>
						<stop  offset="0.3605" style="stop-color:#6EB65F"/>
						<stop  offset="1" style="stop-color:#4E6038"/>
					</linearGradient>
					<path class="st1" d="M58.8,70.5c0.6,1.3,1.3,2.6,2.1,4s1.8,2.8,2.9,4.2c0.4,0.5,0.7,0.9,1.1,1.4c0.8,0.9,1.6,1.8,2.5,2.6
						c1.3,1.2,2.8,2.4,4.3,3.4s3.1,1.9,4.8,2.6c1.6,0.7,3.3,1.2,4.9,1.6s3.3,0.6,4.8,0.8c1,0.1,2,0.1,3,0.1c0,0,0,0-0.1,0
						c-1.5-0.8-3-1.7-4.6-2.7c-1.6-1.1-3.2-2.3-4.7-3.7c-1.5-1.4-3-2.9-4.3-4.6c-0.6-0.8-1.3-1.6-1.8-2.5c-0.6-0.9-1.3-1.9-1.8-2.9
						c-1.1-1.9-2-3.8-2.8-5.8s-1.5-3.9-2-5.9c-0.3-1-0.5-1.9-0.7-2.9c-3.2,0.3-6.7,0.7-10.5,1.4l0,0c0,0,0.2,0.9,0.7,2.5
						C56.9,65.7,57.6,68,58.8,70.5z"/>
					
						<linearGradient id="SVGID_3_" gradientUnits="userSpaceOnUse" x1="79.0757" y1="171.2091" x2="151.3704" y2="79.0754" gradientTransform="matrix(1 0 0 -1 0 202)">
						<stop  offset="1.702724e-03" style="stop-color:#60BBB8"/>
						<stop  offset="0.3605" style="stop-color:#6EB65F"/>
						<stop  offset="1" style="stop-color:#4E6038"/>
					</linearGradient>
					<path class="st2" d="M134.1,84.2c-1.3,1.4-2.7,2.8-4.3,4s-3.2,2.3-5,3.3c-1.7,0.9-3.5,1.7-5.3,2.3c-1.8,0.6-3.6,1-5.3,1.3
						c-1.7,0.3-3.3,0.4-4.8,0.5c-0.4,0-0.7,0-1.1,0.1c-0.4,0-0.7,0-1,0c-0.2,0-0.3,0-0.5,0c9.2,3.2,25.7,5.7,37-12
						c0,0-2.8-1.4-7-2.9C136,81.9,135.1,83.1,134.1,84.2z"/>
					
						<linearGradient id="SVGID_4_" gradientUnits="userSpaceOnUse" x1="87.0822" y1="177.4915" x2="159.3768" y2="85.3578" gradientTransform="matrix(1 0 0 -1 0 202)">
						<stop  offset="1.702724e-03" style="stop-color:#60BBB8"/>
						<stop  offset="0.3605" style="stop-color:#6EB65F"/>
						<stop  offset="1" style="stop-color:#4E6038"/>
					</linearGradient>
					<path class="st3" d="M133.1,63.1c-0.5,1.9-1.2,3.9-2,5.9s-1.7,3.9-2.8,5.8c-0.6,1-1.2,1.9-1.8,2.9c-0.6,0.9-1.2,1.7-1.8,2.5
						c-1.4,1.7-2.8,3.2-4.3,4.6s-3.1,2.6-4.7,3.7s-3.1,2-4.6,2.7c0,0,0,0-0.1,0c0.9,0,1.9,0,3-0.1c1.5-0.1,3.2-0.4,4.8-0.8
						c1.6-0.4,3.3-0.9,4.9-1.6s3.2-1.6,4.8-2.6c1.5-1,3-2.2,4.3-3.4c0.9-0.8,1.7-1.7,2.5-2.6c0.4-0.4,0.8-0.9,1.1-1.4
						c1.1-1.4,2-2.8,2.9-4.2c0.8-1.4,1.5-2.7,2.1-4c1.2-2.6,2-4.8,2.5-6.4s0.7-2.5,0.7-2.5c-3.8-0.7-7.3-1.2-10.5-1.4
						C133.6,61.1,133.3,62.1,133.1,63.1z"/>
					
						<linearGradient id="SVGID_5_" gradientUnits="userSpaceOnUse" x1="81.708" y1="173.3229" x2="154.0027" y2="81.1892" gradientTransform="matrix(1 0 0 -1 0 202)">
						<stop  offset="1.702724e-03" style="stop-color:#60BBB8"/>
						<stop  offset="0.3605" style="stop-color:#6EB65F"/>
						<stop  offset="1" style="stop-color:#4E6038"/>
					</linearGradient>
					<path class="st4" d="M113.4,85c1.5-0.9,3-1.9,4.5-3c1.5-1.2,2.9-2.5,4.3-3.9c0.3-0.3,0.7-0.7,1-1.1c1-1.2,2-2.4,2.8-3.7
						c1.2-1.7,2.2-3.5,3.1-5.3s1.7-3.7,2.4-5.5c0.3-0.8,0.6-1.7,0.8-2.5c0.3-1,0.6-2,0.8-2.9c0.4-1.7,0.8-3.4,1-5
						c0.5-3.1,0.7-5.7,0.8-7.6c0.1-1.8,0-2.9,0-2.9l0,0l0,0c-27.5,2.5-35,19.9-35,19.9l0,0c0,0-7.5-17.4-35-19.9l0,0
						c0,0,0,1.1,0,2.9c0.1,1.8,0.3,4.5,0.8,7.6c0.3,1.6,0.6,3.2,1,5c0.2,0.9,0.5,1.9,0.8,2.9c0.3,0.8,0.5,1.6,0.8,2.5
						c0.7,1.8,1.4,3.7,2.4,5.5c0.9,1.8,1.9,3.6,3.1,5.3c0.9,1.3,1.8,2.5,2.8,3.7c0.2,0.2,0.3,0.3,0.5,0.5s0.3,0.4,0.5,0.6
						c0.7,0.7,1.4,1.4,2,2c0.1,0.1,0.1,0.1,0.2,0.2c0.7,0.6,1.4,1.2,2.1,1.7c1.5,1.2,3,2.2,4.5,3c0.4,0.2,0.7,0.4,1.1,0.6
						c1.1,0.6,2.2,1.1,3.2,1.5s1.8,0.7,2.7,1c0.4,0.1,0.8,0.3,1.2,0.4c0.2,0.1,0.4,0.1,0.6,0.2c0.1,0,0.2,0.1,0.3,0.1
						c0.2,0.1,0.4,0.1,0.6,0.2c0.1,0,0.1,0,0.2,0.1c0.3,0.1,0.5,0.1,0.7,0.2c0.1,0,0.2,0,0.3,0.1c0.1,0,0.3,0.1,0.4,0.1
						c0.4,0.1,0.8,0.2,1.1,0.3c0.2,0,0.3,0.1,0.5,0.1c0.1,0,0.3,0.1,0.4,0.1l0,0h0.1l0,0l0,0l0,0l0,0l0,0l0,0l0,0l0,0l0,0h0.1
						c0.2,0,0.5-0.1,0.9-0.2c0.3-0.1,0.7-0.2,1.1-0.3c0.2-0.1,0.4-0.1,0.7-0.2c0.2-0.1,0.5-0.1,0.7-0.2c0.3-0.1,0.5-0.1,0.8-0.2
						s0.6-0.2,0.8-0.3c1.2-0.4,2.5-0.8,3.9-1.4C110.4,86.6,111.9,85.9,113.4,85z"/>
				</g>
			</g>
		</g>
	</g>
	<g>
		<g>
			<g>
				<g>
					
						<linearGradient id="SVGID_6_" gradientUnits="userSpaceOnUse" x1="44.9381" y1="187.3555" x2="160.1517" y2="40.5253" gradientTransform="matrix(1 0 0 -1 0 202)">
						<stop  offset="1.702724e-03" style="stop-color:#60BBB8"/>
						<stop  offset="0.3605" style="stop-color:#6EB65F"/>
						<stop  offset="1" style="stop-color:#4E6038"/>
					</linearGradient>
					<path class="st5" d="M129.3,121.9c5.4,0.6,11.1,1.2,15.7,0.6c5.4-0.7,10.2-3.5,12.6-7.4c1.4-2.3,3.4-3.7,5.6-4
						c0.7-0.1,1.3-0.1,1.9,0c1.6,0.2,3.2,1.3,3.7,2.6l0.5,1.3l1.2-0.7c3.3-2,6.6-3.6,10.3-2.9c2.1,0.4,3.6,1.9,4,3.7
						c0.5,2.4-0.9,4.1-3.5,5.9c-11.6,8.4-26.5,14.1-44.1,17.2c-9.9,1.7-33.8,7.1-48.6,10.6c0,0,5.2-2,8.8-6.4c0,0,1.5-2.3,6.1-5.1
						s10.6-6.7,11.6-7.6C114.8,129.7,120.1,125,129.3,121.9z"/>
				</g>
			</g>
			<g>
				<g>
					
						<linearGradient id="SVGID_7_" gradientUnits="userSpaceOnUse" x1="9.0184" y1="159.1703" x2="124.2319" y2="12.34" gradientTransform="matrix(1 0 0 -1 0 202)">
						<stop  offset="1.702724e-03" style="stop-color:#60BBB8"/>
						<stop  offset="0.3605" style="stop-color:#6EB65F"/>
						<stop  offset="1" style="stop-color:#4E6038"/>
					</linearGradient>
					<path class="st6" d="M52.8,118.5c-3.2,0-6.4,0.4-9.4,1.3c0,0-18.5,9.9-26.1,15.8c-2.3,1.8-2.7,5.1-1,7.6l6.8,12.7
						c1.4,2,4.1,2.9,6.6,2c0.5-0.2,1.8-0.7,3.4-1.4c5.5-2.3,10.5-4.5,12.8-4.8l0,0c2.5,0,5,0.4,8,1c9.8,1.7,23.2,4,38.1-7.5
						c1.1-0.9,2.7-2.5,4.1-4s2.6-2.7,3.4-3.3c2-1.4,4-2.8,6-4.1l6.3-4.3l0,0l0.9-0.6c11.2-7.3,21.7-11.8,23.9-12.1
						c1-0.1,1.7-1.5,1.8-2c0.3-0.9,0.2-1.6-0.2-2.4c-1-1.8-3.7-2.9-4.7-3.2c-7.1-2-25.7,4.5-29.4,5.8l-0.9,0.3l0,0
						c-6.1,2.3-15.5,4.5-26.2,7l-0.2,0.1h-0.2c-1.7-0.3-3.6-0.7-5.5-1.2C65.6,119.9,59.1,118.5,52.8,118.5z"/>
				</g>
			</g>
		</g>
	</g>
</g>
</svg>
